<svg width="1333" height="429" viewBox="0 0 1333 429" fill="none" xmlns="http://www.w3.org/2000/svg">
<g filter="url(#filter0_d_10_105)">
<path d="M1290 421V378H1247V421H1204V378H1161V421H1118V378H1075V421H1032V378H989V421H946V378H903V421H860V378H817V421H774V378H731V421H688V378H645V421H602V378H559V421H516V378H473V421H430V378H387V421H344V378H301V421H258V378H215V421H172V378H129V421H86V378H43V421H0V0H1333V421H1290Z" fill="black"/>
<path d="M1290 421V378H1247V421H1204V378H1161V421H1118V378H1075V421H1032V378H989V421H946V378H903V421H860V378H817V421H774V378H731V421H688V378H645V421H602V378H559V421H516V378H473V421H430V378H387V421H344V378H301V421H258V378H215V421H172V378H129V421H86V378H43V421H0V0H1333V421H1290Z" stroke="black"/>
</g>
</svg>
